<svg width="247" height="246" viewBox="0 0 247 246" fill="none" xmlns="http://www.w3.org/2000/svg">
<g filter="url(#filter0_dddiii_7_65)">
<circle cx="86.0831" cy="86" r="60" fill="url(#paint0_linear_7_65)"/>
</g>
<g filter="url(#filter1_f_7_65)">
<ellipse cx="57.5831" cy="65.5" rx="31.2777" ry="42.9685" transform="rotate(45 57.5831 65.5)" fill="url(#paint1_linear_7_65)"/>
</g>
<g filter="url(#filter2_f_7_65)">
<ellipse cx="47.5831" cy="57.5" rx="12.4706" ry="17.935" transform="rotate(45 47.5831 57.5)" fill="url(#paint2_linear_7_65)"/>
</g>
<g filter="url(#filter3_f_7_65)">
<ellipse cx="48.0831" cy="55" rx="6.17094" ry="9.38541" transform="rotate(45 48.0831 55)" fill="url(#paint3_linear_7_65)"/>
</g>
<g filter="url(#filter4_f_7_65)">
<ellipse cx="117.583" cy="104.5" rx="17.9558" ry="26.5919" transform="rotate(30 117.583 104.5)" fill="url(#paint4_linear_7_65)"/>
</g>
<path d="M61.6495 84.5859C62.0011 84.2344 62.5675 83.9609 63.3488 83.7656C64.1691 83.5312 65.0675 83.4141 66.0441 83.4141C66.7472 83.4141 67.2159 83.4336 67.4503 83.4727C67.7238 83.4727 67.9972 83.5117 68.2706 83.5898H76.298C77.5089 83.5898 78.5245 83.5508 79.3448 83.4727C80.1652 83.3555 80.7902 83.1211 81.2198 82.7695C81.4933 82.457 81.6691 81.9883 81.7472 81.3633C81.8253 80.6992 81.8644 79.918 81.8644 79.0195C81.7863 78.2383 81.7277 77.5547 81.6886 76.9688C81.6886 76.3438 81.6691 75.7383 81.63 75.1523C81.5909 74.5664 81.5519 73.9805 81.5128 73.3945C81.5128 72.8086 81.4933 72.125 81.4542 71.3438C81.3761 70.7969 81.3175 70.1914 81.2784 69.5273C81.2394 68.8242 81.2003 68.1992 81.1613 67.6523C81.1613 66.7148 81.2198 65.9336 81.337 65.3086C81.4542 64.6836 81.7277 64.1562 82.1573 63.7266C82.6261 63.1797 83.505 62.9062 84.7941 62.9062H86.4933C87.0402 62.9062 87.5089 62.9453 87.8995 63.0234C88.2902 63.1016 88.6417 63.2383 88.9542 63.4336C89.3839 63.6289 89.6183 63.9805 89.6573 64.4883C89.6964 64.957 89.755 65.3867 89.8331 65.7773C90.0675 66.793 90.1847 67.7891 90.1847 68.7656C90.1847 69.1953 90.1652 69.6055 90.1261 69.9961C90.087 70.3477 90.0675 70.6797 90.0675 70.9922V72.75C90.0675 73.2578 90.048 73.7656 90.0089 74.2734C89.9698 74.7422 89.9503 75.2109 89.9503 75.6797C89.9503 76.0312 89.9698 76.3828 90.0089 76.7344C90.048 77.0859 90.1066 77.418 90.1847 77.7305C90.2238 78.1602 90.2433 78.5117 90.2433 78.7852C90.2433 79.0586 90.2433 79.2344 90.2433 79.3125V81.6562C90.2433 81.7344 90.2433 81.8711 90.2433 82.0664C90.2823 82.2617 90.3214 82.457 90.3605 82.6523C90.3995 82.8477 90.4386 83.0234 90.4777 83.1797C90.5167 83.3359 90.5363 83.4141 90.5363 83.4141C91.8253 83.4141 93.1144 83.4336 94.4034 83.4727C95.6925 83.4727 96.9034 83.4727 98.0363 83.4727C99.9113 83.4727 101.65 83.4531 103.251 83.4141C104.892 83.3359 106.65 83.2969 108.525 83.2969C109.11 83.2969 109.638 83.375 110.107 83.5312C110.575 83.6875 110.81 84.0781 110.81 84.7031C110.81 85.0547 110.829 85.3867 110.868 85.6992C110.907 86.0117 110.927 86.3242 110.927 86.6367C110.927 87.1836 110.849 87.7305 110.693 88.2773C110.575 88.7852 110.282 89.3125 109.814 89.8594C109.267 90.4844 108.583 90.8555 107.763 90.9727C106.943 91.0508 106.044 91.0898 105.068 91.0898C103.427 91.0898 101.943 91.0508 100.614 90.9727C99.2863 90.8555 97.9581 90.7578 96.63 90.6797L94.4034 90.7969L90.2433 91.207C89.9698 91.7539 89.8331 92.7891 89.8331 94.3125C89.8331 95.1328 89.8527 96.0117 89.8917 96.9492C89.9308 97.8867 89.9503 98.8047 89.9503 99.7031C89.9503 100.758 89.9894 101.559 90.0675 102.105C90.1456 102.613 90.1847 103.258 90.1847 104.039C90.1847 104.156 90.1652 104.371 90.1261 104.684C90.1261 104.996 90.1261 105.328 90.1261 105.68C90.087 106.109 90.0675 106.559 90.0675 107.027L90.2433 109.723C90.2433 110.387 90.1066 110.895 89.8331 111.246C89.5988 111.402 89.3058 111.539 88.9542 111.656C88.6027 111.734 88.1534 111.773 87.6066 111.773C86.7081 111.773 85.7902 111.734 84.8527 111.656C83.9152 111.539 83.3097 111.402 83.0363 111.246C82.7238 110.699 82.5284 110.133 82.4503 109.547C82.3722 108.922 82.3331 108.238 82.3331 107.496V104.859C82.3331 104.078 82.3136 103.316 82.2745 102.574C82.2745 101.793 82.2745 101.07 82.2745 100.406C82.2745 99.9766 82.2745 99.6055 82.2745 99.293C82.2745 98.9805 82.2941 98.6484 82.3331 98.2969V93.3164C82.3331 93.1602 82.2941 93.0039 82.2159 92.8477C82.1769 92.6914 82.0597 92.5156 81.8644 92.3203C81.1613 91.6172 80.38 91.2656 79.5206 91.2656C78.9738 91.2656 78.4855 91.2852 78.0558 91.3242C77.6261 91.3633 77.0402 91.3828 76.298 91.3828C75.9464 91.3828 75.6925 91.3828 75.5363 91.3828C75.38 91.3438 75.2433 91.3242 75.1261 91.3242C75.0089 91.2852 74.8917 91.2656 74.7745 91.2656C74.6964 91.2266 74.5597 91.207 74.3644 91.207C74.0909 91.207 73.8175 91.2266 73.5441 91.2656C73.2706 91.2656 73.0363 91.2656 72.8409 91.2656C72.0597 91.2656 71.4152 91.2656 70.9073 91.2656C70.4386 91.2656 70.0284 91.2656 69.6769 91.2656C69.3644 91.2266 69.0714 91.207 68.798 91.207C68.5636 91.207 68.3097 91.207 68.0363 91.207C67.3722 91.207 66.7863 91.2461 66.2784 91.3242C65.7706 91.3633 65.1847 91.3828 64.5206 91.3828C63.8956 91.3828 63.3878 91.3242 62.9972 91.207C62.6066 91.0508 62.2355 90.6992 61.8839 90.1523C61.6105 89.7617 61.4152 89.3711 61.298 88.9805C61.2198 88.5508 61.1808 87.9453 61.1808 87.1641C61.2589 86.1484 61.3566 85.4844 61.4738 85.1719C61.5909 84.8594 61.6495 84.6641 61.6495 84.5859Z" fill="#FFE2E2"/>
<defs>
<filter id="filter0_dddiii_7_65" x="6.08313" y="6" width="240" height="240" filterUnits="userSpaceOnUse" color-interpolation-filters="sRGB">
<feFlood flood-opacity="0" result="BackgroundImageFix"/>
<feColorMatrix in="SourceAlpha" type="matrix" values="0 0 0 0 0 0 0 0 0 0 0 0 0 0 0 0 0 0 127 0" result="hardAlpha"/>
<feMorphology radius="20" operator="erode" in="SourceAlpha" result="effect1_dropShadow_7_65"/>
<feOffset dx="20" dy="20"/>
<feGaussianBlur stdDeviation="15"/>
<feComposite in2="hardAlpha" operator="out"/>
<feColorMatrix type="matrix" values="0 0 0 0 1 0 0 0 0 1 0 0 0 0 1 0 0 0 0.9 0"/>
<feBlend mode="normal" in2="BackgroundImageFix" result="effect1_dropShadow_7_65"/>
<feColorMatrix in="SourceAlpha" type="matrix" values="0 0 0 0 0 0 0 0 0 0 0 0 0 0 0 0 0 0 127 0" result="hardAlpha"/>
<feMorphology radius="10" operator="erode" in="SourceAlpha" result="effect2_dropShadow_7_65"/>
<feOffset dx="20" dy="20"/>
<feGaussianBlur stdDeviation="20"/>
<feComposite in2="hardAlpha" operator="out"/>
<feColorMatrix type="matrix" values="0 0 0 0 1 0 0 0 0 0.333333 0 0 0 0 0.333333 0 0 0 0.6 0"/>
<feBlend mode="normal" in2="effect1_dropShadow_7_65" result="effect2_dropShadow_7_65"/>
<feColorMatrix in="SourceAlpha" type="matrix" values="0 0 0 0 0 0 0 0 0 0 0 0 0 0 0 0 0 0 127 0" result="hardAlpha"/>
<feOffset dx="40" dy="40"/>
<feGaussianBlur stdDeviation="30"/>
<feComposite in2="hardAlpha" operator="out"/>
<feColorMatrix type="matrix" values="0 0 0 0 1 0 0 0 0 0.333333 0 0 0 0 0.333333 0 0 0 0.2 0"/>
<feBlend mode="normal" in2="effect2_dropShadow_7_65" result="effect3_dropShadow_7_65"/>
<feBlend mode="normal" in="SourceGraphic" in2="effect3_dropShadow_7_65" result="shape"/>
<feColorMatrix in="SourceAlpha" type="matrix" values="0 0 0 0 0 0 0 0 0 0 0 0 0 0 0 0 0 0 127 0" result="hardAlpha"/>
<feOffset dx="24" dy="24"/>
<feGaussianBlur stdDeviation="10"/>
<feComposite in2="hardAlpha" operator="arithmetic" k2="-1" k3="1"/>
<feColorMatrix type="matrix" values="0 0 0 0 0.878431 0 0 0 0 0.219608 0 0 0 0 0.219608 0 0 0 0.7 0"/>
<feBlend mode="normal" in2="shape" result="effect4_innerShadow_7_65"/>
<feColorMatrix in="SourceAlpha" type="matrix" values="0 0 0 0 0 0 0 0 0 0 0 0 0 0 0 0 0 0 127 0" result="hardAlpha"/>
<feOffset dx="-12" dy="-12"/>
<feGaussianBlur stdDeviation="10"/>
<feComposite in2="hardAlpha" operator="arithmetic" k2="-1" k3="1"/>
<feColorMatrix type="matrix" values="0 0 0 0 1 0 0 0 0 1 0 0 0 0 1 0 0 0 0.2 0"/>
<feBlend mode="normal" in2="effect4_innerShadow_7_65" result="effect5_innerShadow_7_65"/>
<feColorMatrix in="SourceAlpha" type="matrix" values="0 0 0 0 0 0 0 0 0 0 0 0 0 0 0 0 0 0 127 0" result="hardAlpha"/>
<feOffset/>
<feGaussianBlur stdDeviation="3"/>
<feComposite in2="hardAlpha" operator="arithmetic" k2="-1" k3="1"/>
<feColorMatrix type="matrix" values="0 0 0 0 1 0 0 0 0 1 0 0 0 0 1 0 0 0 1 0"/>
<feBlend mode="normal" in2="effect5_innerShadow_7_65" result="effect6_innerShadow_7_65"/>
</filter>
<filter id="filter1_f_7_65" x="-7.62939e-06" y="7.91686" width="115.166" height="115.166" filterUnits="userSpaceOnUse" color-interpolation-filters="sRGB">
<feFlood flood-opacity="0" result="BackgroundImageFix"/>
<feBlend mode="normal" in="SourceGraphic" in2="BackgroundImageFix" result="shape"/>
<feGaussianBlur stdDeviation="10" result="effect1_foregroundBlur_7_65"/>
</filter>
<filter id="filter2_f_7_65" x="17.1354" y="27.0523" width="60.8955" height="60.8955" filterUnits="userSpaceOnUse" color-interpolation-filters="sRGB">
<feFlood flood-opacity="0" result="BackgroundImageFix"/>
<feBlend mode="normal" in="SourceGraphic" in2="BackgroundImageFix" result="shape"/>
<feGaussianBlur stdDeviation="7.5" result="effect1_foregroundBlur_7_65"/>
</filter>
<filter id="filter3_f_7_65" x="30.1397" y="37.0566" width="35.8868" height="35.8868" filterUnits="userSpaceOnUse" color-interpolation-filters="sRGB">
<feFlood flood-opacity="0" result="BackgroundImageFix"/>
<feBlend mode="normal" in="SourceGraphic" in2="BackgroundImageFix" result="shape"/>
<feGaussianBlur stdDeviation="5" result="effect1_foregroundBlur_7_65"/>
</filter>
<filter id="filter4_f_7_65" x="83.1232" y="65.776" width="68.9198" height="77.448" filterUnits="userSpaceOnUse" color-interpolation-filters="sRGB">
<feFlood flood-opacity="0" result="BackgroundImageFix"/>
<feBlend mode="normal" in="SourceGraphic" in2="BackgroundImageFix" result="shape"/>
<feGaussianBlur stdDeviation="7" result="effect1_foregroundBlur_7_65"/>
</filter>
<linearGradient id="paint0_linear_7_65" x1="47.0831" y1="46" x2="131.083" y2="127" gradientUnits="userSpaceOnUse">
<stop stop-color="#FF8080"/>
<stop offset="1" stop-color="#FFB2B2"/>
</linearGradient>
<linearGradient id="paint1_linear_7_65" x1="90.1076" y1="62.2894" x2="25.0682" y2="67.2309" gradientUnits="userSpaceOnUse">
<stop stop-color="white" stop-opacity="0"/>
<stop offset="1" stop-color="white"/>
</linearGradient>
<linearGradient id="paint2_linear_7_65" x1="64.2963" y1="52.8076" x2="31.7694" y2="57.0503" gradientUnits="userSpaceOnUse">
<stop stop-color="white" stop-opacity="0"/>
<stop offset="1" stop-color="white"/>
</linearGradient>
<linearGradient id="paint3_linear_7_65" x1="54.2541" y1="56.2751" x2="42.923" y2="58.6165" gradientUnits="userSpaceOnUse">
<stop stop-color="white" stop-opacity="0"/>
<stop offset="1" stop-color="white"/>
</linearGradient>
<linearGradient id="paint4_linear_7_65" x1="146.185" y1="107.039" x2="103.035" y2="116.806" gradientUnits="userSpaceOnUse">
<stop stop-color="white"/>
<stop offset="1" stop-color="white" stop-opacity="0"/>
</linearGradient>
</defs>
</svg>
